<svg xmlns="http://www.w3.org/2000/svg" height="76" width="221.333" fill-rule="evenodd"><path d="M25.437 42.308c-2.158 0-3.908-2.067-3.908-4.62s1.75-4.62 3.908-4.62 3.908 2.067 3.908 4.62-1.75 4.62-3.908 4.62zm36.98-32c.708 10.28-35.554 25.57-35.2-10.308C17.974 2.842 9.44 11.375 9.44 11.375S30.416 32.604.2 38.75c-1.775 14.22 8.887 19.525 8.887 19.525s17.775-6.83 19.2 14.958C43.22 77.14 56.02 68.866 56.02 68.866s-20.267-8.43-10.308-28.696c7.108-13.154 28.442-5.333 28.8-3.2 1.775-14.575-12.187-28.13-12.087-26.667m6.125 38.272h-.03l-2.392 8.408h-1.646l-2.3-8.408h-.03v8.408H59.87V46.35h3.763l1.72 6.837h.03l1.858-6.837h3.592v10.633H68.55v-8.408m8.703 3.763c0-1.004-.258-1.95-1.246-1.95-1.233 0-1.233 1.52-1.233 1.95h2.483zm2.192 1.313H74.77c0 .942.608 1.813 1.963 1.813.82 0 1.646-.304 2.237-.625l.046 1.813a7.52 7.52 0 0 1-2.513.454c-2.787 0-4.02-1.692-4.02-4.113 0-2.133 1.246-4.067 3.517-4.067.713 0 3.442 0 3.442 4.142v.58m7.028 3.127c-.7.183-1.417.333-2.18.333-3.058 0-3.746-2.558-3.746-4.004 0-2.437 1.4-4.175 3.93-4.175.792 0 1.217.196 1.917.38l-.12 1.813c-.437-.167-.896-.333-1.4-.333-1.825 0-1.825 2.008-1.825 2.317 0 1.675 1.033 2.208 1.95 2.208.5 0 .958-.183 1.4-.35l.075 1.812m1.157-11.218h2.404v4.663h.03c.27-.883 1.158-1.296 2.025-1.296 1.75 0 2.33 1.28 2.33 2.863v5.196h-2.404v-4.892c0-.987-.437-1.25-.93-1.25-.775 0-1.05.67-1.05 1.692v4.446H87.63V45.554m12.816 7.61c-.958 0-2.467.058-2.467 1.383 0 1.033.837 1.033 1.033 1.033.213 0 1.43-.03 1.43-1.963v-.454zM96.65 49.43c.62-.196 1.687-.5 2.558-.5 2.787 0 3.425 1.158 3.425 2.925v2.892l.058 2.237h-2.19l-.058-1.096h-.03c-.104.483-1.033 1.217-2.18 1.217-1.475 0-2.45-.958-2.45-2.404 0-2.65 3.092-2.667 3.93-2.667h.73c0-1.52-1.125-1.52-1.475-1.52-.608 0-1.263.137-2.208.7l-.104-1.78m12.02 2.662c0-.988-.442-1.25-.93-1.25-.776 0-1.05.67-1.05 1.692v4.446h-2.403V50.71l-.058-1.658h2.192l.058 1.325h.03c.36-.867.97-1.446 2.237-1.446 1.75 0 2.33 1.28 2.33 2.862v5.196h-2.405v-4.892m4.16-3.05h2.404v7.937h-2.404zm0-3.488h2.404v2.133h-2.404v-2.133m9.766 11.217c-.7.183-1.412.333-2.18.333-3.058 0-3.745-2.558-3.745-4.004 0-2.437 1.4-4.175 3.928-4.175.787 0 1.217.196 1.917.38l-.12 1.813c-.437-.167-.896-.333-1.4-.333-1.825 0-1.825 2.008-1.825 2.317 0 1.675 1.034 2.208 1.947 2.208.5 0 .958-.183 1.4-.35l.074 1.812m5.505-3.613c-.96 0-2.467.058-2.467 1.383 0 1.033.837 1.033 1.033 1.033.213 0 1.43-.03 1.43-1.963v-.454zm-3.796-3.733c.625-.196 1.692-.5 2.558-.5 2.788 0 3.43 1.158 3.43 2.925v2.892l.06 2.237h-2.192l-.057-1.096h-.03c-.103.483-1.033 1.217-2.18 1.217-1.475 0-2.454-.958-2.454-2.404 0-2.65 3.092-2.667 3.93-2.667h.73c0-1.52-1.125-1.52-1.475-1.52-.608 0-1.263.137-2.208.7l-.105-1.78m7.706 7.554h2.405V45.563h-2.405v11.425m8.292-10.638h6.137v1.854h-3.733v2.375h3.55v1.854h-3.55v2.68h3.916v1.858h-6.32V46.338m12.128 5.758c0-.988-.437-1.25-.928-1.25-.776 0-1.05.67-1.05 1.692v4.446h-2.404V50.71l-.06-1.658h2.192l.057 1.325h.03c.365-.867.975-1.446 2.236-1.446 1.75 0 2.33 1.28 2.33 2.862v5.196h-2.405v-4.892m7.542 3.2c.976 0 1.204-1.17 1.204-2.283 0-.913-.212-2.346-1.187-2.346-1.112 0-1.17 1.52-1.17 2.346 0 .625.087 2.283 1.153 2.283zm3.613.73c0 1.158-.03 4.342-4.037 4.342-1.125 0-2.1-.242-2.863-.47l.076-1.963c.407.213 1.4.7 2.495.7 1.905 0 1.98-1.4 1.98-3.046h-.03c-.133.425-.743 1.4-2.084 1.4-1.383 0-2.804-.97-2.804-3.958 0-2.525 1.004-4.096 2.817-4.096 1.383 0 1.916.896 2.133 1.383h.028l.06-1.263h2.284c-.03.363-.06.775-.06 1.783v5.192m1.762-6.984h2.403v7.937h-2.403zm0-3.488h2.403v2.133h-2.403v-2.133m8.544 6.538c0-.988-.437-1.25-.93-1.25-.775 0-1.05.67-1.05 1.692v4.446H169.5V50.71l-.06-1.658h2.193l.06 1.325h.028c.367-.867.975-1.446 2.24-1.446 1.748 0 2.328 1.28 2.328 2.862v5.196h-2.404v-4.892m8.657.242c0-1.004-.253-1.95-1.245-1.95-1.233 0-1.233 1.52-1.233 1.95zm2.193 1.313h-4.676c0 .942.6 1.813 1.963 1.813.82 0 1.647-.304 2.237-.625l.043 1.813a7.51 7.51 0 0 1-2.513.454c-2.787 0-4.02-1.692-4.02-4.113 0-2.133 1.25-4.067 3.52-4.067.713 0 3.44 0 3.44 4.142v.58m5.997-1.3c0-1.004-.253-1.95-1.245-1.95-1.233 0-1.233 1.52-1.233 1.95zm2.192 1.313h-4.676c0 .942.6 1.813 1.964 1.813.82 0 1.645-.304 2.237-.625l.04 1.813a7.51 7.51 0 0 1-2.513.454c-2.787 0-4.02-1.692-4.02-4.113 0-2.133 1.25-4.067 3.52-4.067.712 0 3.44 0 3.44 4.142v.58m1.43-2.94l-.06-1.658h2.192l.057 1.43h.03c.488-.85.82-1.55 2.208-1.55h.347v2.225c-.255-.058-.472-.092-.804-.092-1.4 0-1.567 1.217-1.567 2.375v3.55h-2.404v-6.275m6-1.667h2.404v7.937h-2.404zm0-3.488h2.404v2.133h-2.404v-2.133m8.548 6.538c0-.988-.437-1.25-.928-1.25-.776 0-1.052.67-1.052 1.692v4.446h-2.404V50.71l-.057-1.658h2.2l.06 1.325h.03c.363-.867.97-1.446 2.237-1.446 1.75 0 2.33 1.28 2.33 2.862v5.196H208.9v-4.892m7.54 3.2c.976 0 1.205-1.17 1.205-2.283 0-.913-.213-2.346-1.188-2.346-1.112 0-1.17 1.52-1.17 2.346 0 .625.087 2.283 1.153 2.283zm3.613.73c0 1.158-.03 4.342-4.037 4.342-1.125 0-2.1-.242-2.863-.47l.075-1.963c.408.213 1.4.7 2.496.7 1.904 0 1.98-1.4 1.98-3.046h-.03c-.133.425-.745 1.4-2.083 1.4-1.384 0-2.805-.97-2.805-3.958 0-2.525 1.005-4.096 2.817-4.096 1.384 0 1.917.896 2.133 1.383h.03l.06-1.263h2.283l-.057 1.783v5.192m-4.612 11.358c.217-.437.67-.88 1.217-.88.5 0 .745.392.745.746v4.654h-.787v.237h3.383v-.237h-.712V67.77c0-.467-.163-.904-.475-1.208-.288-.28-.888-.542-1.417-.542-.455 0-.908.158-1.308.408-.3.183-.567.43-.755.658-.07.083-.13.067-.13-.037v-1.196c-.124.125-.463.346-.804.346h-1.76v.233h.705v5.483h-.755v.233h3.4v-.233h-.784V68.38c0-.325.112-.717.245-.983zm-6.045-1.167c.612 0 1.112.233 1.112 1.842v2.046c0 1.608-.495 1.892-1.112 1.892s-1.112-.28-1.112-1.892v-2.046c0-1.608.5-1.842 1.112-1.842l-.02-.23c-1.7 0-3.18 1.462-3.18 3.096 0 1.763 1.317 3.175 3.18 3.175 1.812 0 3.155-1.45 3.155-3.212 0-1.717-1.42-3.062-3.155-3.062l.02.23zm-6.45-3.312h.667v8.983h-.8v.254h3.408v-.25h-.776v-9.592a1.3 1.3 0 0 1-.8.35h-1.7v.258zm-3.733 0h.667v8.983h-.8v.254h3.408v-.25h-.776v-9.592c-.12.125-.457.346-.8.35h-1.7v.258zm-3.775 5.946h3.712a2.5 2.5 0 0 0-.109-.904 3.64 3.64 0 0 0-.895-1.358c-.455-.4-1.117-.658-1.84-.658-.628 0-1.228.233-1.824.72-.704.58-1.113 1.563-1.113 2.546 0 .82.27 1.633.896 2.27.455.463 1.38.792 2.2.792s1.58-.312 2.1-.958c.33-.408.525-.87.66-1.404l-.26-.067c-.204.612-.44 1.033-.753 1.383-.33.367-.933.658-1.43.658-.46 0-.8-.18-1.02-.533-.208-.325-.25-.675-.283-1.054s-.03-.83-.03-1.43l.037-.304.02-1.233c.005-.25.025-.617.133-.792.125-.2.35-.33.65-.33.283 0 .463.112.583.337.092.17.14.483.14.754l.012 1.262h-1.545l-.04.304zm-1.968 3.008h-.95V62.95h.964v-.28h-3.176l-2.25 6.48-2.353-6.48h-3.397v.28h1.017v7.85c0 .542-.163.687-.26.804-.116.133-.263.238-.604.238h-.188v.3h2.605v-.288h-.167c-.313 0-.567-.042-.755-.246-.14-.154-.27-.596-.27-.9v-7.462l3.228 8.904h.43l3.045-8.837v8.554h-1.033v.283h4.116v-.283zM173.357 64.8c.588 0 1.067-.475 1.067-1.067s-.475-1.067-1.067-1.067c-.587 0-1.067.475-1.067 1.067s.475 1.067 1.067 1.067zm.97 1.05c-.12.12-.463.342-.8.342h-1.78v.233h.755v5.483h-.785v.233h3.32v-.233h-.705v-6.062zm-8.02 6.675a3.47 3.47 0 0 0-.65.437c-.217.2-.43.554-.43.904 0 .42.2.862.612 1.18.545.417 1.276.604 2.092.604.63 0 1.32-.183 1.775-.496.496-.337.825-.758 1.055-1.312a3.94 3.94 0 0 0 .208-1.213c0-.346-.1-.746-.24-1.02-.133-.258-.357-.458-.64-.58-.26-.108-.588-.162-.97-.162h-2.304c-.297 0-.55-.07-.66-.217a.35.35 0 0 1 .031-.458c.145-.167.483-.333.763-.363a2.2 2.2 0 0 1 .407 0c.188.02.34.108.78.108a3.22 3.22 0 0 0 1.421-.367c.587-.346.925-.942.925-1.554 0-.47-.24-1.017-.56-1.354.087-.117.375-.42.52-.48.08-.03.117.03.07.083a.61.61 0 0 0-.06.642.69.69 0 0 0 .649.4c.345 0 .62-.283.62-.63 0-.258-.133-.48-.367-.642a.87.87 0 0 0-.499-.15c-.213 0-.42.083-.57.163s-.36.275-.533.454a2.66 2.66 0 0 0-1.57-.517l.02.188c.36 0 .517.17.613.383s.1.425.1.8v1.18c0 .33-.032.53-.133.763-.104.242-.337.4-.667.4s-.553-.163-.667-.45c-.1-.254-.075-.7-.075-.7v-1.183s-.02-.492.125-.808c.07-.15.275-.383.704-.383l-.02-.188a2.65 2.65 0 0 0-1.629.525c-.4.296-.763.863-.763 1.438s.283 1.225.904 1.58c.055.03.083.1.004.125-.78.233-1.18.8-1.18 1.5 0 .546.336 1.03.8 1.367l.33.108h2.687c.33 0 .528.025.737.142.28.154.375.392.375.675 0 .408-.237.913-.545 1.225-.405.412-1.075.73-1.83.73-.7 0-1.263-.225-1.645-.6-.264-.263-.36-.613-.36-1.02 0-.496.237-.88.583-1.146l-.328-.108zm10.763-3.98l.02-1.233c.004-.25.025-.617.133-.792.125-.2.35-.33.65-.33a.59.59 0 0 1 .58.337c.092.167.14.483.14.75l.012 1.263h-1.545l-.033.304h3.708c.017-.154.017-.5-.108-.904a3.63 3.63 0 0 0-.896-1.358c-.453-.4-1.116-.658-1.837-.658-.63 0-1.23.233-1.825.72-.708.58-1.117 1.563-1.117 2.546 0 .82.272 1.637.896 2.27.455.463 1.38.792 2.2.792s1.58-.312 2.1-.958c.33-.408.524-.87.657-1.404l-.257-.067c-.204.612-.443 1.033-.75 1.383a2.11 2.11 0 0 1-1.433.658c-.463 0-.792-.18-1.02-.533-.2-.325-.25-.675-.28-1.054s-.028-.83-.028-1.43zm-15.516.054l.02-1.233c.004-.25.025-.62.133-.792.125-.2.35-.33.65-.33.283 0 .46.113.58.338.092.17.143.483.143.754l.012 1.263h-1.545l-.04.304h3.712a2.48 2.48 0 0 0-.107-.904 3.66 3.66 0 0 0-.896-1.358c-.455-.4-1.117-.658-1.84-.658-.628 0-1.228.233-1.825.72-.704.58-1.115 1.563-1.115 2.546 0 .825.27 1.637.895 2.27.453.463 1.38.792 2.2.792s1.58-.312 2.1-.958c.33-.412.525-.87.66-1.408l-.26-.067c-.2.613-.44 1.033-.753 1.383-.33.367-.933.658-1.43.658-.46 0-.792-.18-1.02-.533-.2-.325-.25-.675-.28-1.05s-.03-.833-.03-1.43l.037-.304zm-6.663-1.213c.216-.437.67-.88 1.216-.88.5 0 .747.392.747.746v4.654h-.784v.242h3.38v-.242h-.712V67.77c0-.467-.163-.904-.475-1.208-.3-.28-.888-.542-1.416-.542-.45 0-.905.158-1.3.408-.3.183-.567.43-.755.658-.065.083-.13.067-.13-.037v-1.196c-.124.125-.46.346-.804.346H152.1v.233h.704v5.483h-.755v.233h3.397v-.233h-.785V68.38c0-.325.12-.717.252-.983zm-5.796.988c0-1.004.43-1.658.837-1.825.04-.013.08.02.07.062-.017.083-.14.163-.14.533 0 .504.437.958.992.958.508 0 .97-.48.97-.983 0-.612-.376-1.108-1.125-1.108-.9 0-1.33.613-1.475.783-.053.063-.117.096-.117-.03v-.917a1.32 1.32 0 0 1-.804.342h-1.884v.233h.864v5.483h-.9v.233h3.696v-.233h-.975V68.37zm-5.616 3.18a.91.91 0 0 1-.713.329c-.62 0-.887-.554-.887-1.18l.024-.908c.063-.508.376-.8.967-.862a7.59 7.59 0 0 1 .917-.038v-.304c-1.196.03-1.98.17-2.455.312-.813.242-1.287.788-1.396 1.367-.116.617.063 1.17.4 1.446.537.437 1.084.57 1.768.57.84 0 1.424-.4 1.736-.675l.376.408a1.64 1.64 0 0 0 .924.317c.33 0 .72-.137.905-.317.25-.242.48-.596.56-.958l-.2-.054c-.055.18-.172.462-.343.58-.133.092-.28.054-.4-.162-.055-.108-.055-.313-.055-.5v-3.287c0-.312-.18-.65-.267-.78-.15-.217-.475-.55-1.28-.775-.743-.2-1.568-.188-2.125-.054-.517.12-1.484.533-1.484 1.446 0 .517.455.862.888.862s.896-.342.896-.846-.43-.72-.617-.792-.02-.217.005-.238c.187-.108.428-.258 1.012-.258.73 0 1.13.163 1.13 1.13v3.43a1.43 1.43 0 0 1-.304.8zm-4.817.142c-.147-.133-.337-.092-.73.1-.437.217-1.216.508-1.87.508-.437 0-.747.008-1.216-.154-2.068-.72-3.034-2.32-3.034-4.758 0-2.2 1.546-4.204 3.05-4.783.43-.162.784-.2 1.237-.2.896 0 1.863.454 2.084.58.216.12.503.142.62.083.116-.05.155-.03.288-.283h.155c.028.33.02 2.683 0 2.98h-.2c-.26-.863-.53-1.596-1.1-2.242-.713-.808-1.472-.925-2.23-.754-.557.12-.975.6-1.204 1.288-.2.6-.428 2.054-.428 3.27 0 1.117.04 2.338.263 3.12.216.77.467 1.146 1.18 1.433.604.242 1.483.146 2.28-.658.87-.888 1.2-2.333 1.2-2.333h.213a49.41 49.41 0 0 1-.07 3.217h-.213a.99.99 0 0 0-.275-.417"/></svg>